:SAMPLES-PER-SECOND 30
:FULLY-SPECIFIED
:DEGREES
535
root  0.652577 40.7102 -5.83905 50.187 -89.0945 -52.2249
RightUpLeg  -1.84349 -12.8107 -9.21387
RightLeg  7.45979 -11.2071 3.45128
RightFoot  0.609873 -0.270269 2.62334
RightToes  0.00048216 0.542163 -0.142577
Spine  5.38886 -1.19607 0.367223
Spine1  5.64863 -2.1529 3.66649
HEad  -11.0883 8.70446 -3.46343
LeftShoulder1  8.01358 -12.1699 -44.531
LeftArm  -16.1581 24.0399 -27.2295
LeftForeArm  27.7296 -33.7734 -5.90694
LeftHand  -0.25398 0.0180481 5.50724
RightShoulder  4.49021 7.70017 34.1272
RightArm  -18.6909 -30.1202 37.5767
RightForeArm  2.2049 13.7803 4.6895
RightHand  -0.778177 1.26951 -13.6866
LeftUpLeg  6.90502 6.86929 6.07116
LeftLeg  4.63402 4.71911 -3.49345
LeftFoot  -8.39628 0.110838 -2.33039
LeftToes  1.06248e-005 4.65855e-005 -8.185e-006
536
root  1.04507 40.6495 -5.28595 66.6402 -89.9351 -68.3456
RightUpLeg  -3.72748 -14.5138 -9.78602
RightLeg  8.90662 -9.28681 2.34107
RightFoot  0.120308 -0.373909 3.73761
RightToes  0.00048216 0.542163 -0.142577
Spine  5.7559 -0.849908 0.369074
Spine1  5.18187 -1.61704 2.77049
HEad  -11.9742 8.2232 -3.80883
LeftShoulder1  8.02594 -12.1747 -44.5888
LeftArm  -14.996 24.041 -26.4622
LeftForeArm  26.68 -31.7121 -5.45905
LeftHand  -0.25398 0.0180481 5.50724
RightShoulder  4.5102 7.77072 34.0534
RightArm  -20.2889 -27.8124 38.9025
RightForeArm  1.95139 13.8918 4.49872
RightHand  -0.836852 1.43161 -14.3738
LeftUpLeg  5.48958 6.78678 4.74445
LeftLeg  5.77095 5.94946 -3.90454
LeftFoot  -8.82146 0.0770311 -1.10254
LeftToes  1.06248e-005 4.65855e-005 -8.185e-006
537
root  1.38383 40.6009 -4.79131 178.134 -89.1834 179.995
RightUpLeg  -5.01776 -16.3045 -10.0143
RightLeg  10.9067 -6.95882 1.07185
RightFoot  -0.98313 -0.429976 4.66685
RightToes  0.00048216 0.542163 -0.142577
Spine  6.30217 -0.502058 0.50954
Spine1  5.12145 -1.09171 1.89359
HEad  -12.8625 7.65042 -4.40675
LeftShoulder1  7.981 -12.1422 -44.4237
LeftArm  -13.0738 23.4028 -25.728
LeftForeArm  24.8721 -28.1515 -4.7127
LeftHand  -0.25398 0.0180481 5.50724
RightShoulder  4.63033 7.98868 34.3376
RightArm  -19.8541 -25.4461 38.3179
RightForeArm  3.82963 14.4033 4.40727
RightHand  -0.785113 1.00833 -14.3403
LeftUpLeg  4.80072 6.66983 3.67074
LeftLeg  6.60388 6.95787 -4.12562
LeftFoot  -8.88187 0.0571262 -0.182838
LeftToes  1.06248e-005 4.65855e-005 -8.185e-006
538
root  1.65127 40.5982 -4.36046 -176.663 -88.8457 174.354
RightUpLeg  -5.60356 -17.3404 -9.80058
RightLeg  13.3214 -4.34993 -0.00149646
RightFoot  -2.47152 -0.403587 4.97028
RightToes  0.00048216 0.542163 -0.142577
Spine  6.64812 -0.268202 0.834738
Spine1  5.44359 -0.745746 1.38862
HEad  -13.4656 7.19101 -5.03507
LeftShoulder1  7.84315 -12.0608 -43.8574
LeftArm  -10.578 22.4959 -25.1365
LeftForeArm  22.9242 -23.4145 -3.91722
LeftHand  -0.25398 0.0180481 5.50724
RightShoulder  4.71345 8.1634 34.4465
RightArm  -18.832 -23.2378 36.6194
RightForeArm  6.86076 15.0974 4.27274
RightHand  -0.766541 0.82508 -14.3953
LeftUpLeg  4.8443 6.65306 3.09315
LeftLeg  6.66865 7.46998 -4.36972
LeftFoot  -8.66202 0.0433337 0.372154
LeftToes  1.06248e-005 4.65855e-005 -8.185e-006
539
root  1.83908 40.6244 -3.99029 172.623 -88.7705 -175.299
RightUpLeg  -5.61891 -16.8522 -9.31541
RightLeg  15.7198 -2.50163 -0.636443
RightFoot  -4.18736 -0.325328 4.74031
RightToes  0.00048216 0.542163 -0.142577
Spine  6.50273 -0.178714 1.30826
Spine1  5.83538 -0.56936 1.05035
HEad  -13.4314 6.93234 -5.35504
LeftShoulder1  7.59834 -11.9381 -42.7657
LeftArm  -9.3183 21.8746 -24.4414
LeftForeArm  22.8643 -18.2212 -3.85523
LeftHand  -0.25398 0.0180481 5.50724
RightShoulder  4.66128 8.15755 34.0231
RightArm  -18.3373 -21.3762 34.5442
RightForeArm  8.94992 15.5303 4.12348
RightHand  -0.829051 1.08671 -14.9542
LeftUpLeg  5.08763 6.59062 2.74376
LeftLeg  6.31373 7.80305 -4.51669
LeftFoot  -8.40989 0.0230134 1.07409
LeftToes  1.06248e-005 4.65855e-005 -8.185e-006
540
root  1.95731 40.6435 -3.68829 162.974 -88.8594 -165.874
RightUpLeg  -5.09185 -15.1071 -8.8456
RightLeg  17.4935 -1.67818 -0.785284
RightFoot  -5.692 -0.28356 4.97802
RightToes  0.00048216 0.542163 -0.142577
Spine  5.95955 -0.162739 1.53909
Spine1  6.09555 -0.502579 0.800268
HEad  -12.8136 6.75788 -5.15428
LeftShoulder1  7.22197 -11.7215 -41.1136
LeftArm  -10.3221 21.7032 -23.3936
LeftForeArm  24.8409 -13.2403 -4.42551
LeftHand  -0.25398 0.0180481 5.50724
RightShoulder  4.48432 7.98052 33.104
RightArm  -18.5666 -19.8077 32.2025
RightForeArm  9.42063 15.4497 4.01561
RightHand  -0.867025 1.28325 -15.1913
LeftUpLeg  5.16766 6.39065 2.34097
LeftLeg  6.12732 8.11322 -4.47352
LeftFoot  -8.17464 -0.00264419 1.87585
LeftToes  1.06248e-005 4.65855e-005 -8.185e-006
541
root  2.02542 40.6368 -3.45854 158.419 -89.0854 -161.489
RightUpLeg  -4.05093 -13.2341 -8.46424
RightLeg  18.3478 -0.498154 -0.397927
RightFoot  -6.51827 -0.309817 6.28879
RightToes  0.00048216 0.542163 -0.142577
Spine  5.22969 -0.140828 1.30469
Spine1  6.2853 -0.490161 0.70835
HEad  -12.0166 6.48594 -4.57843
LeftShoulder1  6.69181 -11.3116 -38.9675
LeftArm  -11.1181 21.7541 -22.0424
LeftForeArm  25.2145 -9.08281 -4.50746
LeftHand  -0.25398 0.0180481 5.50724
RightShoulder  4.21811 7.67602 31.7841
RightArm  -19.2719 -18.2844 29.5419
RightForeArm  8.90721 14.7969 3.92098
RightHand  -0.817072 1.14805 -14.6069
LeftUpLeg  5.1032 6.20838 1.919
LeftLeg  6.30431 8.21129 -4.40643
LeftFoot  -8.06303 -0.0192895 2.37218
LeftToes  1.06248e-005 4.65855e-005 -8.185e-006
542
root  2.05629 40.6088 -3.28716 163.264 -89.3547 -166.466
RightUpLeg  -2.6569 -11.9711 -8.07748
RightLeg  18.3167 1.49753 0.337572
RightFoot  -6.83694 -0.339845 7.44647
RightToes  0.00048216 0.542163 -0.142577
Spine  4.36194 -0.0541786 0.889052
Spine1  6.52003 -0.408881 0.590453
HEad  -11.3163 5.99596 -3.98066
LeftShoulder1  6.03894 -10.6884 -36.4463
LeftArm  -11.0911 21.8262 -20.3957
LeftForeArm  23.3572 -6.19165 -4.17266
LeftHand  -0.25398 0.0180481 5.50724
RightShoulder  3.86956 7.22661 30.0961
RightArm  -20.279 -16.6828 26.707
RightForeArm  8.08739 13.6554 3.75926
RightHand  -0.74325 0.892935 -13.8264
LeftUpLeg  5.02094 6.14148 1.5414
LeftLeg  6.62425 8.10778 -4.46245
LeftFoot  -8.17937 -0.0225058 2.60031
LeftToes  1.06248e-005 4.65855e-005 -8.185e-006
543
root  2.05397 40.5882 -3.15005 -174.899 -89.4792 171.649
RightUpLeg  -1.07425 -11.5002 -7.67468
RightLeg  17.2989 2.51857 0.704005
RightFoot  -7.30878 -0.287786 6.7117
RightToes  0.00048216 0.542163 -0.142577
Spine  3.35461 0.141218 0.71313
Spine1  6.74042 -0.112293 0.184011
HEad  -10.6625 5.26397 -3.53689
LeftShoulder1  5.33767 -9.94587 -33.633
LeftArm  -11.4102 21.9443 -18.4017
LeftForeArm  21.1857 -4.87417 -3.78987
LeftHand  -0.25398 0.0180481 5.50724
RightShoulder  3.47184 6.64825 28.1926
RightArm  -21.4413 -15.1728 23.7841
RightForeArm  7.25988 12.3084 3.47165
RightHand  -0.709177 0.770905 -13.4483
LeftUpLeg  5.10074 6.04347 1.112
LeftLeg  6.5563 8.1384 -4.62221
LeftFoot  -8.24377 -0.0282763 2.8781
LeftToes  1.06248e-005 4.65855e-005 -8.185e-006
544
root  2.02393 40.6041 -3.03138 -147.608 -89.3519 144.399
RightUpLeg  0.597384 -11.47 -7.42817
RightLeg  15.1369 0.747539 0.404541
RightFoot  -8.05691 -0.176384 4.22251
RightToes  0.00048216 0.542163 -0.142577
Spine  2.33711 0.42554 0.919387
Spine1  6.75053 0.40578 -0.499243
HEad  -9.96351 4.38202 -3.1745
LeftShoulder1  4.6356 -9.14909 -30.576
LeftArm  -12.1534 22.1103 -16.1719
LeftForeArm  19.2016 -5.17587 -3.3861
LeftHand  -0.25398 0.0180481 5.50724
RightShoulder  3.09421 6.06052 26.2856
RightArm  -22.5084 -13.9995 20.6968
RightForeArm  6.3079 11.0943 3.11711
RightHand  -0.710731 0.866656 -13.2821
LeftUpLeg  5.49048 5.74921 0.574054
LeftLeg  5.71041 8.48693 -4.82149
LeftFoot  -7.90132 -0.0498964 3.24155
LeftToes  1.06248e-005 4.65855e-005 -8.185e-006
545
root  1.98088 40.6474 -2.92498 -136.452 -89.1503 133.344
RightUpLeg  2.09045 -11.0231 -7.47715
RightLeg  12.3956 -3.04304 0.274222
RightFoot  -8.36054 -0.100011 1.71784
RightToes  0.00048216 0.542163 -0.142577
Spine  1.46211 0.728242 1.51771
Spine1  6.4969 1.02463 -1.41194
HEad  -9.30336 3.51506 -2.84604
LeftShoulder1  3.94249 -8.25859 -27.3861
LeftArm  -13.3072 22.0691 -13.9511
LeftForeArm  17.3256 -6.57432 -2.98185
LeftHand  -0.25398 0.0180481 5.50724
RightShoulder  2.75894 5.53236 24.3831
RightArm  -23.2684 -13.1819 17.5342
RightForeArm  4.75327 10.1715 2.84956
RightHand  -0.729789 1.14478 -13.0835
LeftUpLeg  6.00867 5.32353 0.0453001
LeftLeg  4.46559 8.98645 -4.97668
LeftFoot  -7.32879 -0.0797455 3.53693
LeftToes  1.06248e-005 4.65855e-005 -8.185e-006
